<mxfile host="65bd71144e">
    <diagram id="H_MhBgfkorOOU4ipzrp2" name="Page-1">
        <mxGraphModel dx="1023" dy="764" grid="1" gridSize="10" guides="1" tooltips="1" connect="1" arrows="1" fold="1" page="1" pageScale="1" pageWidth="850" pageHeight="1100" math="0" shadow="0">
            <root>
                <mxCell id="0"/>
                <mxCell id="1" parent="0"/>
                <mxCell id="28" value="" style="whiteSpace=wrap;html=1;fontSize=24;fillColor=#f5f5f5;strokeColor=#666666;fontColor=#333333;" parent="1" vertex="1">
                    <mxGeometry x="90" y="210" width="330" height="680" as="geometry"/>
                </mxCell>
                <mxCell id="3" value="Tweets dataset" style="rounded=0;whiteSpace=wrap;html=1;fontSize=24;fillColor=#dae8fc;strokeColor=#6c8ebf;" parent="1" vertex="1">
                    <mxGeometry x="125" y="240" width="260" height="50" as="geometry"/>
                </mxCell>
                <mxCell id="5" value="" style="rounded=1;whiteSpace=wrap;html=1;strokeWidth=2;fillWeight=4;hachureGap=8;hachureAngle=45;fillColor=#1ba1e2;sketch=1;fontSize=24;" parent="1" vertex="1">
                    <mxGeometry x="115" y="374" width="120" height="60" as="geometry"/>
                </mxCell>
                <mxCell id="6" value="" style="rounded=1;whiteSpace=wrap;html=1;strokeWidth=2;fillWeight=4;hachureGap=8;hachureAngle=45;fillColor=#1ba1e2;sketch=1;fontSize=24;" parent="1" vertex="1">
                    <mxGeometry x="275" y="374" width="120" height="60" as="geometry"/>
                </mxCell>
                <mxCell id="8" value="roberta" style="text;html=1;align=center;verticalAlign=middle;resizable=0;points=[];autosize=1;strokeColor=none;fontSize=24;" parent="1" vertex="1">
                    <mxGeometry x="290" y="444" width="90" height="30" as="geometry"/>
                </mxCell>
                <mxCell id="9" value="bert" style="text;html=1;align=center;verticalAlign=middle;resizable=0;points=[];autosize=1;strokeColor=none;fontSize=24;" parent="1" vertex="1">
                    <mxGeometry x="145" y="444" width="60" height="30" as="geometry"/>
                </mxCell>
                <mxCell id="10" value="Quotebank" style="rounded=0;whiteSpace=wrap;html=1;fontSize=24;fillColor=#f8cecc;strokeColor=#b85450;" parent="1" vertex="1">
                    <mxGeometry x="125" y="552" width="260" height="50" as="geometry"/>
                </mxCell>
                <mxCell id="11" value="" style="shape=flexArrow;endArrow=classic;html=1;fontSize=24;exitX=0.183;exitY=1.02;exitDx=0;exitDy=0;exitPerimeter=0;fillColor=#dae8fc;strokeColor=#6c8ebf;" parent="1" edge="1">
                    <mxGeometry width="50" height="50" relative="1" as="geometry">
                        <mxPoint x="168.92000000000007" y="301" as="sourcePoint"/>
                        <mxPoint x="169" y="360" as="targetPoint"/>
                    </mxGeometry>
                </mxCell>
                <mxCell id="12" value="" style="shape=flexArrow;endArrow=classic;html=1;fontSize=24;exitX=0.183;exitY=1.02;exitDx=0;exitDy=0;exitPerimeter=0;fillColor=#dae8fc;strokeColor=#6c8ebf;" parent="1" edge="1">
                    <mxGeometry width="50" height="50" relative="1" as="geometry">
                        <mxPoint x="341.0000000000001" y="301" as="sourcePoint"/>
                        <mxPoint x="341.08000000000004" y="360" as="targetPoint"/>
                    </mxGeometry>
                </mxCell>
                <mxCell id="14" value="" style="shape=flexArrow;endArrow=classic;html=1;fontSize=24;exitX=0.183;exitY=1.02;exitDx=0;exitDy=0;exitPerimeter=0;fillColor=#f8cecc;strokeColor=#b85450;" parent="1" edge="1">
                    <mxGeometry width="50" height="50" relative="1" as="geometry">
                        <mxPoint x="166.46000000000006" y="490" as="sourcePoint"/>
                        <mxPoint x="167" y="540" as="targetPoint"/>
                    </mxGeometry>
                </mxCell>
                <mxCell id="15" value="" style="shape=flexArrow;endArrow=classic;html=1;fontSize=24;exitX=0.183;exitY=1.02;exitDx=0;exitDy=0;exitPerimeter=0;fillColor=#f8cecc;strokeColor=#b85450;" parent="1" edge="1">
                    <mxGeometry width="50" height="50" relative="1" as="geometry">
                        <mxPoint x="342.54" y="491" as="sourcePoint"/>
                        <mxPoint x="343" y="540" as="targetPoint"/>
                    </mxGeometry>
                </mxCell>
                <mxCell id="18" value="" style="shape=flexArrow;endArrow=classic;html=1;fontSize=24;exitX=0.183;exitY=1.02;exitDx=0;exitDy=0;exitPerimeter=0;fillColor=#f8cecc;strokeColor=#b85450;" parent="1" edge="1">
                    <mxGeometry width="50" height="50" relative="1" as="geometry">
                        <mxPoint x="254.49999999999994" y="612" as="sourcePoint"/>
                        <mxPoint x="255" y="652" as="targetPoint"/>
                    </mxGeometry>
                </mxCell>
                <mxCell id="20" value="Hand label positives" style="text;html=1;strokeColor=none;fillColor=none;align=center;verticalAlign=middle;whiteSpace=wrap;rounded=0;fontSize=30;" parent="1" vertex="1">
                    <mxGeometry x="115" y="662" width="280" height="20" as="geometry"/>
                </mxCell>
                <mxCell id="21" value="" style="shape=image;verticalLabelPosition=bottom;labelBackgroundColor=#ffffff;verticalAlign=top;aspect=fixed;imageAspect=0;image=https://raw.githubusercontent.com/heartexlabs/label-studio/master/images/ls_github_header.png;" parent="1" vertex="1">
                    <mxGeometry x="505" y="469" width="520" height="74" as="geometry"/>
                </mxCell>
                <mxCell id="22" value="" style="shape=flexArrow;endArrow=classic;html=1;fontSize=24;fillColor=#f8cecc;strokeColor=#b85450;" parent="1" edge="1">
                    <mxGeometry width="50" height="50" relative="1" as="geometry">
                        <mxPoint x="410" y="680" as="sourcePoint"/>
                        <mxPoint x="510" y="550" as="targetPoint"/>
                    </mxGeometry>
                </mxCell>
                <mxCell id="23" value="" style="shape=flexArrow;endArrow=classic;html=1;fontSize=24;exitX=0.183;exitY=1.02;exitDx=0;exitDy=0;exitPerimeter=0;fillColor=#f8cecc;strokeColor=#b85450;" parent="1" edge="1">
                    <mxGeometry width="50" height="50" relative="1" as="geometry">
                        <mxPoint x="254.41" y="699" as="sourcePoint"/>
                        <mxPoint x="254" y="742" as="targetPoint"/>
                    </mxGeometry>
                </mxCell>
                <mxCell id="24" value="Evaluate precision" style="text;html=1;strokeColor=none;fillColor=none;align=center;verticalAlign=middle;whiteSpace=wrap;rounded=0;fontSize=30;" parent="1" vertex="1">
                    <mxGeometry x="115" y="752" width="280" height="20" as="geometry"/>
                </mxCell>
                <mxCell id="29" value="" style="whiteSpace=wrap;html=1;fontSize=24;fillColor=#f5f5f5;strokeColor=#666666;fontColor=#333333;" parent="1" vertex="1">
                    <mxGeometry x="885" y="200" width="330" height="680" as="geometry"/>
                </mxCell>
                <mxCell id="35" value="Quotebank" style="rounded=0;whiteSpace=wrap;html=1;fontSize=24;fillColor=#f8cecc;strokeColor=#b85450;" parent="1" vertex="1">
                    <mxGeometry x="920" y="240" width="260" height="50" as="geometry"/>
                </mxCell>
                <mxCell id="38" value="" style="shape=flexArrow;endArrow=classic;html=1;fontSize=24;exitX=0.183;exitY=1.02;exitDx=0;exitDy=0;exitPerimeter=0;fillColor=#f8cecc;strokeColor=#b85450;" parent="1" edge="1">
                    <mxGeometry width="50" height="50" relative="1" as="geometry">
                        <mxPoint x="1049.6599999999999" y="387.9999999999998" as="sourcePoint"/>
                        <mxPoint x="1050" y="428" as="targetPoint"/>
                    </mxGeometry>
                </mxCell>
                <mxCell id="40" value="" style="shape=flexArrow;endArrow=classic;html=1;fontSize=24;exitX=0.183;exitY=1.02;exitDx=0;exitDy=0;exitPerimeter=0;fillColor=#f8cecc;strokeColor=#b85450;" parent="1" edge="1">
                    <mxGeometry width="50" height="50" relative="1" as="geometry">
                        <mxPoint x="1049.41" y="303.9999999999998" as="sourcePoint"/>
                        <mxPoint x="1049" y="344" as="targetPoint"/>
                    </mxGeometry>
                </mxCell>
                <mxCell id="41" value="Regex matching" style="text;html=1;strokeColor=none;fillColor=none;align=center;verticalAlign=middle;whiteSpace=wrap;rounded=0;fontSize=30;" parent="1" vertex="1">
                    <mxGeometry x="910" y="354" width="280" height="20" as="geometry"/>
                </mxCell>
                <mxCell id="42" value="" style="shape=flexArrow;endArrow=classic;html=1;fontSize=24;fillColor=#f8cecc;strokeColor=#b85450;" parent="1" target="21" edge="1">
                    <mxGeometry width="50" height="50" relative="1" as="geometry">
                        <mxPoint x="905" y="570" as="sourcePoint"/>
                        <mxPoint x="805" y="540" as="targetPoint"/>
                    </mxGeometry>
                </mxCell>
                <mxCell id="44" value="Evaluate precision" style="text;html=1;strokeColor=none;fillColor=none;align=center;verticalAlign=middle;whiteSpace=wrap;rounded=0;fontSize=30;" parent="1" vertex="1">
                    <mxGeometry x="910" y="623" width="280" height="20" as="geometry"/>
                </mxCell>
                <mxCell id="46" value="Hand label positives" style="text;html=1;strokeColor=none;fillColor=none;align=center;verticalAlign=middle;whiteSpace=wrap;rounded=0;fontSize=30;" parent="1" vertex="1">
                    <mxGeometry x="910" y="543" width="280" height="20" as="geometry"/>
                </mxCell>
                <mxCell id="49" value="Quotes per disaster" style="rounded=0;whiteSpace=wrap;html=1;fontSize=24;fillColor=#f8cecc;strokeColor=#b85450;" parent="1" vertex="1">
                    <mxGeometry x="920" y="441" width="260" height="50" as="geometry"/>
                </mxCell>
                <mxCell id="50" value="" style="shape=flexArrow;endArrow=classic;html=1;fontSize=24;fillColor=#f8cecc;strokeColor=#b85450;" parent="1" edge="1">
                    <mxGeometry width="50" height="50" relative="1" as="geometry">
                        <mxPoint x="920" y="360" as="sourcePoint"/>
                        <mxPoint x="820" y="330" as="targetPoint"/>
                    </mxGeometry>
                </mxCell>
                <mxCell id="53" value="" style="outlineConnect=0;fontColor=#232F3E;gradientColor=none;fillColor=#232F3E;strokeColor=none;dashed=0;verticalLabelPosition=bottom;verticalAlign=top;align=center;html=1;fontSize=12;fontStyle=0;aspect=fixed;pointerEvents=1;shape=mxgraph.aws4.question;" parent="1" vertex="1">
                    <mxGeometry x="528" y="240" width="41" height="78" as="geometry"/>
                </mxCell>
                <mxCell id="54" value="How to match the quotes?&lt;br&gt;How many diasters?" style="text;html=1;align=center;verticalAlign=middle;resizable=0;points=[];autosize=1;strokeColor=none;fontSize=24;" parent="1" vertex="1">
                    <mxGeometry x="560" y="275" width="290" height="60" as="geometry"/>
                </mxCell>
                <mxCell id="55" value="" style="shape=flexArrow;endArrow=classic;html=1;fontSize=24;exitX=0.183;exitY=1.02;exitDx=0;exitDy=0;exitPerimeter=0;fillColor=#f8cecc;strokeColor=#b85450;" parent="1" edge="1">
                    <mxGeometry width="50" height="50" relative="1" as="geometry">
                        <mxPoint x="1049.58" y="495.9999999999999" as="sourcePoint"/>
                        <mxPoint x="1049.92" y="536" as="targetPoint"/>
                    </mxGeometry>
                </mxCell>
                <mxCell id="56" value="" style="shape=flexArrow;endArrow=classic;html=1;fontSize=24;exitX=0.183;exitY=1.02;exitDx=0;exitDy=0;exitPerimeter=0;fillColor=#f8cecc;strokeColor=#b85450;" parent="1" edge="1">
                    <mxGeometry width="50" height="50" relative="1" as="geometry">
                        <mxPoint x="1049.58" y="576" as="sourcePoint"/>
                        <mxPoint x="1049.92" y="616" as="targetPoint"/>
                    </mxGeometry>
                </mxCell>
                <mxCell id="57" value="" style="shape=flexArrow;endArrow=classic;html=1;fontSize=24;exitX=0.183;exitY=1.02;exitDx=0;exitDy=0;exitPerimeter=0;fillColor=#f8cecc;strokeColor=#b85450;" parent="1" edge="1">
                    <mxGeometry width="50" height="50" relative="1" as="geometry">
                        <mxPoint x="1049.58" y="660" as="sourcePoint"/>
                        <mxPoint x="1049.92" y="700" as="targetPoint"/>
                    </mxGeometry>
                </mxCell>
                <mxCell id="58" value="Quantify popularity" style="text;html=1;strokeColor=none;fillColor=none;align=center;verticalAlign=middle;whiteSpace=wrap;rounded=0;fontSize=30;" parent="1" vertex="1">
                    <mxGeometry x="910" y="717" width="280" height="20" as="geometry"/>
                </mxCell>
                <mxCell id="60" value="" style="shape=flexArrow;endArrow=classic;html=1;fontSize=24;exitX=0.183;exitY=1.02;exitDx=0;exitDy=0;exitPerimeter=0;fillColor=#f8cecc;strokeColor=#b85450;" parent="1" edge="1">
                    <mxGeometry width="50" height="50" relative="1" as="geometry">
                        <mxPoint x="1049.58" y="759" as="sourcePoint"/>
                        <mxPoint x="1049.92" y="799" as="targetPoint"/>
                    </mxGeometry>
                </mxCell>
                <mxCell id="61" value="&lt;font style=&quot;font-size: 36px&quot;&gt;STORY&lt;/font&gt;" style="whiteSpace=wrap;html=1;fontSize=24;fillColor=#fff2cc;strokeColor=#d6b656;" parent="1" vertex="1">
                    <mxGeometry x="569" y="40" width="170" height="60" as="geometry"/>
                </mxCell>
                <mxCell id="62" value="" style="shape=flexArrow;endArrow=classic;html=1;fontSize=24;fillColor=#fff2cc;strokeColor=#d6b656;" parent="1" edge="1">
                    <mxGeometry width="50" height="50" relative="1" as="geometry">
                        <mxPoint x="467" y="180" as="sourcePoint"/>
                        <mxPoint x="547" y="110" as="targetPoint"/>
                    </mxGeometry>
                </mxCell>
                <mxCell id="63" value="" style="shape=flexArrow;endArrow=classic;html=1;fontSize=24;fillColor=#fff2cc;strokeColor=#d6b656;" parent="1" edge="1">
                    <mxGeometry width="50" height="50" relative="1" as="geometry">
                        <mxPoint x="830" y="180" as="sourcePoint"/>
                        <mxPoint x="767" y="110" as="targetPoint"/>
                    </mxGeometry>
                </mxCell>
                <mxCell id="64" value="&lt;b&gt;Regression analysis&lt;/b&gt;" style="text;html=1;strokeColor=none;fillColor=none;align=center;verticalAlign=middle;whiteSpace=wrap;rounded=0;fontSize=30;" parent="1" vertex="1">
                    <mxGeometry x="900" y="810" width="300" height="20" as="geometry"/>
                </mxCell>
                <mxCell id="66" value="" style="shape=flexArrow;endArrow=classic;html=1;fontSize=24;exitX=0.183;exitY=1.02;exitDx=0;exitDy=0;exitPerimeter=0;fillColor=#f8cecc;strokeColor=#b85450;" parent="1" edge="1">
                    <mxGeometry width="50" height="50" relative="1" as="geometry">
                        <mxPoint x="254.82000000000008" y="780.5" as="sourcePoint"/>
                        <mxPoint x="254.41" y="823.4999999999998" as="targetPoint"/>
                    </mxGeometry>
                </mxCell>
                <mxCell id="67" value="&lt;b&gt;Transfer learning&lt;/b&gt;" style="text;html=1;strokeColor=none;fillColor=none;align=center;verticalAlign=middle;whiteSpace=wrap;rounded=0;fontSize=30;" parent="1" vertex="1">
                    <mxGeometry x="105" y="832" width="300" height="20" as="geometry"/>
                </mxCell>
                <mxCell id="68" value="" style="outlineConnect=0;fontColor=#232F3E;gradientColor=none;fillColor=#232F3E;strokeColor=none;dashed=0;verticalLabelPosition=bottom;verticalAlign=top;align=center;html=1;fontSize=12;fontStyle=0;aspect=fixed;pointerEvents=1;shape=mxgraph.aws4.question;" parent="1" vertex="1">
                    <mxGeometry x="590" y="604" width="41" height="78" as="geometry"/>
                </mxCell>
                <mxCell id="69" value="How to quantify&lt;br&gt;the popularity?" style="text;html=1;align=center;verticalAlign=middle;resizable=0;points=[];autosize=1;strokeColor=none;fontSize=24;" parent="1" vertex="1">
                    <mxGeometry x="640" y="617" width="180" height="60" as="geometry"/>
                </mxCell>
                <mxCell id="70" value="" style="shape=flexArrow;endArrow=classic;html=1;fontSize=24;fillColor=#f8cecc;strokeColor=#b85450;entryX=0.996;entryY=0.871;entryDx=0;entryDy=0;entryPerimeter=0;exitX=0;exitY=0.5;exitDx=0;exitDy=0;" parent="1" source="58" target="69" edge="1">
                    <mxGeometry width="50" height="50" relative="1" as="geometry">
                        <mxPoint x="901" y="740" as="sourcePoint"/>
                        <mxPoint x="801" y="821.9999999999998" as="targetPoint"/>
                    </mxGeometry>
                </mxCell>
                <mxCell id="76" value="" style="shape=flexArrow;endArrow=classic;html=1;fontSize=24;fillColor=#f8cecc;strokeColor=#b85450;exitX=0;exitY=0.5;exitDx=0;exitDy=0;" parent="1" edge="1">
                    <mxGeometry width="50" height="50" relative="1" as="geometry">
                        <mxPoint x="890.72" y="817.74" as="sourcePoint"/>
                        <mxPoint x="800" y="830" as="targetPoint"/>
                    </mxGeometry>
                </mxCell>
                <mxCell id="77" value="" style="outlineConnect=0;fontColor=#232F3E;gradientColor=none;fillColor=#232F3E;strokeColor=none;dashed=0;verticalLabelPosition=bottom;verticalAlign=top;align=center;html=1;fontSize=12;fontStyle=0;aspect=fixed;pointerEvents=1;shape=mxgraph.aws4.question;" parent="1" vertex="1">
                    <mxGeometry x="510" y="790" width="41" height="78" as="geometry"/>
                </mxCell>
                <mxCell id="78" value="Number of datapoints?" style="text;html=1;align=center;verticalAlign=middle;resizable=0;points=[];autosize=1;strokeColor=none;fontSize=24;" parent="1" vertex="1">
                    <mxGeometry x="540" y="827" width="260" height="30" as="geometry"/>
                </mxCell>
            </root>
        </mxGraphModel>
    </diagram>
</mxfile>